<mxfile host="65bd71144e">
    <diagram id="BF2fFZ__Rzvh8hYSS4MP" name="Page-1">
        <mxGraphModel dx="684" dy="408" grid="1" gridSize="10" guides="1" tooltips="1" connect="1" arrows="1" fold="1" page="1" pageScale="1" pageWidth="850" pageHeight="1100" background="#CCFFFF" math="0" shadow="0">
            <root>
                <mxCell id="0"/>
                <mxCell id="1" parent="0"/>
                <mxCell id="2" value="&lt;font color=&quot;#000000&quot;&gt;Prospective &lt;br&gt;Member&lt;/font&gt;" style="shape=umlActor;verticalLabelPosition=bottom;verticalAlign=top;html=1;outlineConnect=0;strokeColor=#000000;" parent="1" vertex="1">
                    <mxGeometry x="80" y="150" width="30" height="60" as="geometry"/>
                </mxCell>
                <mxCell id="6" value="" style="endArrow=classic;html=1;strokeColor=#000000;" parent="1" edge="1">
                    <mxGeometry width="50" height="50" relative="1" as="geometry">
                        <mxPoint x="120" y="180" as="sourcePoint"/>
                        <mxPoint x="230" y="180" as="targetPoint"/>
                    </mxGeometry>
                </mxCell>
                <mxCell id="7" value="Claim their&lt;br&gt;FC Key" style="edgeLabel;html=1;align=center;verticalAlign=middle;resizable=0;points=[];labelBorderColor=#000000;" parent="6" vertex="1" connectable="0">
                    <mxGeometry x="0.5429" relative="1" as="geometry">
                        <mxPoint x="-35" as="offset"/>
                    </mxGeometry>
                </mxCell>
                <mxCell id="11" value="Is drop funder a&lt;br&gt;council member?" style="rhombus;whiteSpace=wrap;html=1;strokeColor=#000000;" parent="1" vertex="1">
                    <mxGeometry x="410" y="140" width="130" height="80" as="geometry"/>
                </mxCell>
                <mxCell id="12" value="Did Keypom call &lt;br&gt;DAO bot?" style="rhombus;whiteSpace=wrap;html=1;strokeColor=#000000;" parent="1" vertex="1">
                    <mxGeometry x="230" y="140" width="130" height="80" as="geometry"/>
                </mxCell>
                <mxCell id="13" value="" style="endArrow=classic;html=1;entryX=0;entryY=0.5;entryDx=0;entryDy=0;exitX=1;exitY=0.5;exitDx=0;exitDy=0;strokeColor=#000000;" parent="1" source="12" target="11" edge="1">
                    <mxGeometry width="50" height="50" relative="1" as="geometry">
                        <mxPoint x="340" y="230" as="sourcePoint"/>
                        <mxPoint x="390" y="180" as="targetPoint"/>
                    </mxGeometry>
                </mxCell>
                <mxCell id="14" value="" style="rounded=1;whiteSpace=wrap;html=1;fillColor=none;dashed=1;strokeColor=#000000;" parent="1" vertex="1">
                    <mxGeometry x="210" y="110" width="340" height="150" as="geometry"/>
                </mxCell>
                <mxCell id="15" value="&lt;font color=&quot;#000000&quot;&gt;Keypom DAO Bot&lt;/font&gt;" style="text;html=1;strokeColor=none;fillColor=none;align=center;verticalAlign=middle;whiteSpace=wrap;rounded=0;dashed=1;" parent="1" vertex="1">
                    <mxGeometry x="315" y="80" width="130" height="30" as="geometry"/>
                </mxCell>
                <mxCell id="16" value="" style="endArrow=classic;html=1;exitX=1;exitY=0.5;exitDx=0;exitDy=0;strokeColor=#000000;" parent="1" source="11" edge="1">
                    <mxGeometry width="50" height="50" relative="1" as="geometry">
                        <mxPoint x="650" y="70" as="sourcePoint"/>
                        <mxPoint x="660" y="180" as="targetPoint"/>
                    </mxGeometry>
                </mxCell>
                <mxCell id="18" value="Auto-register &lt;br&gt;new member" style="edgeLabel;html=1;align=center;verticalAlign=middle;resizable=0;points=[];labelBorderColor=#000000;" parent="16" vertex="1" connectable="0">
                    <mxGeometry x="-0.24" relative="1" as="geometry">
                        <mxPoint x="12" as="offset"/>
                    </mxGeometry>
                </mxCell>
                <mxCell id="17" value="DAO" style="ellipse;whiteSpace=wrap;html=1;strokeColor=#000000;" parent="1" vertex="1">
                    <mxGeometry x="660" y="140" width="120" height="80" as="geometry"/>
                </mxCell>
            </root>
        </mxGraphModel>
    </diagram>
</mxfile>